<svg id="Layer_1" data-name="Layer 1" xmlns="http://www.w3.org/2000/svg" viewBox="0 0 250 250"><defs><style>.cls-1{fill:#ddd899;}.cls-2{fill:#f9aa87;}.cls-3{fill:#cc8e79;}.cls-4,.cls-5{fill:#f4cc8c;}.cls-5,.cls-6,.cls-8{fill-rule:evenodd;}.cls-6{fill:#e67672;}.cls-7,.cls-8{fill:#453530;}.cls-9{fill:none;stroke:#453530;stroke-linecap:round;stroke-miterlimit:10;stroke-width:5.48px;}</style></defs><path class="cls-1" d="M156.72,80.33c0,8.49-1.93,18.11-8.51,21.65-1.88-.47.08-20.68.08-20.68H115.35c0-.33,0-.64,0-1,0-10.64,9.27-19.26,20.7-19.26S156.72,69.69,156.72,80.33Z"/><path class="cls-2" d="M161.88,115.57l-3.22-4.13c2.16-2.66,3.68-6,6.44-8.17,4.92-3.8,11.49-4.56,17.4-3a35.17,35.17,0,0,1,13.27,7.31,40.89,40.89,0,0,1,5.12,5.24c1.5,1.77,4,3.9,5,6,0,0,4.63,9.52,4.63,10.13s-1,2.07-1,2.87-4.42,0-4.42,0l-35.57-.87a42.85,42.85,0,0,0-1.87-4.29c-.59-.94,0-4.75,0-4.75Z"/><path class="cls-3" d="M74.73,90.2h75v28.17l-17.62,8.72-12-3.68-5,1.5-28.39-13-3.49,13s-2,4.85-4.38,4.51-16.79,0-16.79,0l9.31-35.89A3.35,3.35,0,0,1,74.73,90.2Z"/><path class="cls-4" d="M127,21.11C66.72,21,16.5,70.72,15.36,130.93l8.2.68C24.61,76.24,73.83,32,129.23,32.05A101.45,101.45,0,0,1,230.62,131.8l16.89-.14c-1-60.22-46.4-109.34-120.55-110.55Z"/><path class="cls-5" d="M230.21,192A113.06,113.06,0,0,0,245.47,140l-69.73-.38h-157A113.41,113.41,0,0,0,34,192l5.6,8.73a112.44,112.44,0,0,0,20.34,21.8H204.27a113,113,0,0,0,20.32-21.8"/><path class="cls-6" d="M134.85,134l3.29-1.53,22.05-9.4h0c2.07,7,2.07,18.33,0,25.28l-1.83,6.13-20.24-9.42a13.8,13.8,0,0,1-1.37,2.43H131.8v23.64L127,168.07a4.37,4.37,0,0,0-2.72-.95,4.42,4.42,0,0,0-2.73.95l-4.31,3.06V147.49h-5.46a13.89,13.89,0,0,1-1.39-2.43l-20.24,9.42-1.83-6.13c-2.07-6.95-2.07-18.33,0-25.28h0l22,9.4,6.87,1.9,4.15-2.68a7.15,7.15,0,0,1,7.49.68l3.77,2.82Z"/><path class="cls-7" d="M6.9,126.16a4.37,4.37,0,0,0-4.37,4.38,122.13,122.13,0,0,0,45.73,95,4.32,4.32,0,0,0,2.73.95H198.4a4.32,4.32,0,0,0,2.73-.95A122.1,122.1,0,0,0,246.82,131a4.36,4.36,0,0,0-4.34-4.4l-74.15-.41c-5.89-.11-5.94,8.77-.05,8.73l69.74.38a113.26,113.26,0,0,1-41.21,82.48H52.47a113.23,113.23,0,0,1-41.18-82.86H83.24c5.9.09,5.9-8.81,0-8.73Z"/><path class="cls-7" d="M125,8.28A122.2,122.2,0,0,0,2.51,132.81,4.36,4.36,0,0,0,10,135.75a4.41,4.41,0,0,0,1.22-3.11,113.45,113.45,0,1,1,226.85.64,4.43,4.43,0,0,0,.29,1.69,4.19,4.19,0,0,0,.91,1.44,4.26,4.26,0,0,0,1.39,1,4.57,4.57,0,0,0,1.67.38,4.42,4.42,0,0,0,1.68-.3,4.33,4.33,0,0,0,2.42-2.31,4.37,4.37,0,0,0,.37-1.67A122.19,122.19,0,0,0,125,8.27Z"/><path class="cls-8" d="M23.56,187.22V196H154.3a4.37,4.37,0,0,0,4.36-4.37h0a4.36,4.36,0,0,0-4.36-4.36Z"/><path class="cls-8" d="M65.56,223l-8.26,2.78,4.34,13a4.39,4.39,0,0,0,4.14,3H187.84V233H68.92Z"/><path class="cls-8" d="M187,191.58h0a4.37,4.37,0,0,0,4.37,4.37h33.49v-8.73H191.39A4.37,4.37,0,0,0,187,191.58Z"/><path class="cls-7" d="M124.68,119.62A15.27,15.27,0,1,0,140,134.89,15.34,15.34,0,0,0,124.68,119.62Zm0,8.72a6.55,6.55,0,1,1-6.55,6.55A6.49,6.49,0,0,1,124.68,128.34Z"/><path class="cls-8" d="M109.41,143.62v32.71a4.35,4.35,0,0,0,.67,2.32,4.37,4.37,0,0,0,6.42,1.07l8.18-6.53,8.18,6.53a4.36,4.36,0,0,0,7.09-3.39V143.62h-8.73v23.62l-3.81-3.05a4.36,4.36,0,0,0-5.46,0l-3.82,3.05V143.62Z"/><path class="cls-8" d="M87.53,108.73a4.29,4.29,0,0,0-2.44.94,4.34,4.34,0,0,0-1.46,2.18l-2.77,9.27a48.35,48.35,0,0,0,0,27.54l2.77,9.28a4.36,4.36,0,0,0,.89,1.62,4.45,4.45,0,0,0,1.5,1.11,4.52,4.52,0,0,0,1.81.38,4.31,4.31,0,0,0,1.81-.4l28.09-13.08a4.27,4.27,0,0,0,1.43-1,4.21,4.21,0,0,0,.92-1.46,4.31,4.31,0,0,0-.12-3.4,4.13,4.13,0,0,0-1-1.39,4.51,4.51,0,0,0-1.49-.89,4.32,4.32,0,0,0-1.71-.23,4.42,4.42,0,0,0-1.68.45l-23.5,11-1.32-4.43a39.76,39.76,0,0,1,0-22.57l1.32-4.43,23.5,10.94a4.42,4.42,0,0,0,1.68.45,4.32,4.32,0,0,0,1.71-.23,4.2,4.2,0,0,0,1.49-.89,4.13,4.13,0,0,0,1-1.39,4.29,4.29,0,0,0,.41-1.69,4.37,4.37,0,0,0-.29-1.71,4.3,4.3,0,0,0-.92-1.46,4.42,4.42,0,0,0-1.43-1L89.64,109.14a4.27,4.27,0,0,0-2.11-.41Z"/><path class="cls-8" d="M161.46,108.73a4.24,4.24,0,0,0-1.75.41l-28.09,13.07a4.32,4.32,0,0,0-1.43,1,4.49,4.49,0,0,0-.93,1.46,4.55,4.55,0,0,0-.28,1.71,4.31,4.31,0,0,0,1.43,3.08,4.24,4.24,0,0,0,1.5.89,4.41,4.41,0,0,0,3.39-.22l23.5-10.94,1.31,4.43a39.59,39.59,0,0,1,0,22.57l-1.31,4.43-23.5-11a4.46,4.46,0,0,0-1.68-.45,4.32,4.32,0,0,0-1.71.23,4.4,4.4,0,0,0-2.53,2.28,4.38,4.38,0,0,0,.81,4.87,4.29,4.29,0,0,0,1.43,1l28.09,13.08a4.31,4.31,0,0,0,1.81.4,4.35,4.35,0,0,0,3.31-1.49,4.36,4.36,0,0,0,.89-1.62l2.76-9.28a48.35,48.35,0,0,0,0-27.54l-2.76-9.27a4.31,4.31,0,0,0-1.6-2.28,4.38,4.38,0,0,0-2.66-.84Z"/><path class="cls-7" d="M124.78,25.85A106.53,106.53,0,0,0,18.2,130.32l8.72.17a97.78,97.78,0,0,1,195.53.18l8.73-.13a106.59,106.59,0,0,0-106.4-104.7Z"/><path class="cls-7" d="M176.38,84.9c-11,0-20.13,6.65-26.64,15.54l7,5.15c5.5-7.51,12-12,19.6-12,9.84,0,16,5,20.91,12.53s7.88,17.49,9.79,25.65l8.5-2c-2-8.55-5.06-19.36-11-28.43S189.38,84.9,176.38,84.9Z"/><path class="cls-8" d="M64.72,86.25h77.12a2.79,2.79,0,0,1,2.8,2.79v31.15l8.37-3.78V89a11.18,11.18,0,0,0-11.17-11.17H64.72a11.18,11.18,0,0,0-10.94,8.92c-.4,2-.76,4-1.35,5.9L42.57,131.8H51L61.93,89A2.79,2.79,0,0,1,64.72,86.25Z"/><path class="cls-8" d="M153,95.18a26,26,0,1,0-49-17.31H95.38A34.39,34.39,0,1,1,153,109.82Z"/><path class="cls-9" d="M112.13,110.55H136"/><path class="cls-9" d="M121,100.61H136"/><line class="cls-4" x1="230.21" y1="191.95" x2="224.59" y2="200.68"/></svg>