<svg width="252" height="173" viewBox="0 0 252 173" fill="none" xmlns="http://www.w3.org/2000/svg">
<path fill-rule="evenodd" clip-rule="evenodd" d="M145.635 69.6516C145.415 68.4146 145.726 67.1216 146.494 65.9856C145.929 66.3766 145.469 66.9556 145.21 67.6266C144.945 68.2956 144.879 69.0446 144.995 69.7626C145.151 70.4996 145.4 71.0806 145.639 71.7286C145.88 72.3616 146.161 72.9826 146.482 73.5906C146.403 72.9076 146.283 72.2366 146.123 71.5786C145.989 70.9276 145.745 70.2416 145.635 69.6516ZM149.79 68.8156C150.562 71.0796 149.98 73.5876 148.287 75.2796L146.873 76.6936C146.619 76.9476 146.188 76.8466 146.072 76.5076L144.227 71.0986C143.454 68.8336 144.037 66.3266 145.73 64.6346L147.144 63.2196C147.397 62.9656 147.829 63.0666 147.945 63.4056L149.79 68.8156Z" fill="#231F1F"/>
<path fill-rule="evenodd" clip-rule="evenodd" d="M151.796 63.4929C151.906 64.0829 152.15 64.7689 152.284 65.4189C152.444 66.0769 152.564 66.7479 152.643 67.4309C152.322 66.8239 152.041 66.2029 151.8 65.5699C151.561 64.9219 151.312 64.3399 151.156 63.6029C151.04 62.8859 151.106 62.1369 151.371 61.4679C151.629 60.7969 152.09 60.2179 152.655 59.8269C151.887 60.9629 151.576 62.2549 151.796 63.4929ZM155.95 62.6559L154.106 57.2469C153.99 56.9079 153.558 56.8069 153.304 57.0609L151.89 58.4739C150.198 60.1669 149.615 62.6739 150.387 64.9399L152.233 70.3479C152.348 70.6879 152.78 70.7879 153.033 70.5349L154.448 69.1209C156.14 67.4289 156.723 64.9209 155.95 62.6559Z" fill="#231F1F"/>
<path fill-rule="evenodd" clip-rule="evenodd" d="M162.853 71.3895C162.317 71.2645 161.762 71.0815 161.265 70.9315C160.276 70.6575 159.219 70.7385 158.155 71.1385C158.94 70.2895 160.278 69.9815 161.437 70.3065C162.003 70.4885 162.497 70.6815 163.017 70.9095C163.53 71.1285 164.029 71.3885 164.516 71.6865C163.948 71.6275 163.394 71.5285 162.853 71.3895ZM155.279 76.4645C155.845 76.6475 156.338 76.8405 156.857 77.0685C157.371 77.2875 157.871 77.5465 158.357 77.8455C157.789 77.7855 157.235 77.6875 156.694 77.5485C156.158 77.4245 155.603 77.2405 155.106 77.0915C154.117 76.8165 153.061 76.8975 151.996 77.2965C152.781 76.4485 154.119 76.1405 155.279 76.4645ZM149.127 82.6165C149.692 82.7995 150.186 82.9935 150.705 83.2205C151.219 83.4395 151.719 83.6995 152.205 83.9975C151.637 83.9385 151.083 83.8395 150.542 83.7005C150.006 83.5765 149.451 83.3925 148.954 83.2435C147.965 82.9685 146.908 83.0495 145.844 83.4495C146.629 82.6005 147.967 82.2925 149.127 82.6165ZM139.476 75.8135C139.586 76.4045 139.83 77.0895 139.964 77.7405C140.124 78.3985 140.244 79.0695 140.323 79.7525C140.002 79.1435 139.721 78.5235 139.479 77.8905C139.241 77.2425 138.992 76.6605 138.836 75.9245C138.72 75.2065 138.785 74.4575 139.051 73.7885C139.31 73.1175 139.77 72.5385 140.335 72.1475C139.567 73.2835 139.256 74.5765 139.476 75.8135ZM161.435 60.6725C162.442 59.8055 163.731 59.3355 165.008 59.2885C163.852 59.8385 162.758 60.3715 161.86 61.1625C160.95 61.9365 160.275 62.9335 159.754 64.1025C159.768 62.8135 160.434 61.5345 161.435 60.6725ZM167.671 70.8375L162.262 68.9935C161.764 68.8245 161.245 68.7245 160.72 68.6955C160.457 68.6805 160.192 68.6835 159.929 68.7025C159.668 68.7225 159.385 68.8105 159.129 68.8025C159.136 68.8025 159.325 68.4895 159.351 68.4515C159.631 68.0545 159.795 67.5315 160.212 67.2485C160.592 66.9925 161.054 66.8845 161.471 66.7055C161.471 66.7055 162.517 66.2575 162.569 66.2325C164.71 65.3325 166.921 63.0895 167.26 57.7185C160.398 58.1505 158.641 61.6345 158.264 64.1905C158.204 64.6145 158.178 65.0125 158.169 65.4935C158.082 66.7255 157.556 67.8795 156.711 68.7785L155.523 69.9665C154.551 70.9385 153.58 71.9105 152.607 72.8835L148.921 76.5685C147.756 77.7325 146.591 78.8975 145.427 80.0615C144.647 80.8415 143.868 81.6225 143.087 82.4025C142.937 82.5515 142.787 82.7025 142.637 82.8515C142.472 82.6885 142.546 82.4885 142.563 82.2655C142.614 81.6475 142.764 81.0415 143.008 80.4705L143.41 79.3875C143.985 78.0005 144.11 76.4465 143.607 74.9745L141.763 69.5645C141.646 69.2255 141.215 69.1245 140.961 69.3785L139.547 70.7925C137.854 72.4855 137.272 74.9935 138.045 77.2565L139.756 82.2765L128.199 93.8325L129.017 94.6505L129.723 93.9465L134.763 88.9835L137.282 86.5015L138.542 85.2605C138.962 84.8475 139.365 84.4165 139.945 84.1625C139.848 84.3835 139.72 84.5745 139.582 84.7555L140.087 85.1195L139.319 85.0735C139.166 85.2415 139.006 85.4035 138.846 85.5645L138.766 85.6465L139.934 86.2645L138.452 85.9655L137.891 86.5355L139.05 87.1485L137.579 86.8515L137.016 87.4235L138.166 88.0325L136.707 87.7385L136.141 88.3125L137.282 88.9165L135.834 88.6235L135.266 89.2005L136.398 89.8005L134.961 89.5105L134.391 90.0885L135.514 90.6845L134.088 90.3965L133.516 90.9775L134.63 91.5685L133.216 91.2825L132.641 91.8665L133.746 92.4515L132.343 92.1685L131.766 92.7545L132.862 93.3355L131.47 93.0545L130.891 93.6435L131.978 94.2195L130.598 93.9415L130.161 94.3845L130.015 94.5315L131.095 95.1035L129.72 94.8265L129.457 95.0905L131.145 96.7795L142.682 85.2415L142.732 85.1925L147.661 86.8735C149.926 87.6465 152.433 87.0625 154.125 85.3705L155.54 83.9565C155.793 83.7035 155.693 83.2705 155.353 83.1555L149.944 81.3105C148.904 80.9555 147.824 80.9255 146.789 81.1355L148.891 79.0335L153.82 80.7145C156.084 81.4875 158.592 80.9045 160.284 79.2125L161.698 77.7985C161.952 77.5445 161.852 77.1125 161.512 76.9965L156.103 75.1525C155.063 74.7975 153.983 74.7665 152.948 74.9755L155.049 72.8745L159.979 74.5555C162.243 75.3275 164.751 74.7455 166.443 73.0535L167.857 71.6395C168.111 71.3855 168.011 70.9535 167.671 70.8375Z" fill="#231F1F"/>
<path fill-rule="evenodd" clip-rule="evenodd" d="M121.188 103.377L122.256 103.942L120.897 103.668L120.305 104.262L121.372 104.826L120.014 104.553L119.421 105.145L120.488 105.71L119.129 105.436L118.536 106.028L119.605 106.595L118.245 106.319L117.651 106.912L118.72 107.479L117.359 107.203L116.767 107.795L117.836 108.362L116.475 108.087L115.882 108.679L116.953 109.246L115.59 108.971L114.998 109.563L116.069 110.13L114.705 109.855L114.113 110.445L115.185 111.014L113.82 110.738L113.228 111.329L114.301 111.898L112.935 111.622L112.344 112.213L113.417 112.781L112.05 112.506L111.459 113.096L112.533 113.665L111.165 113.389L110.574 113.98L111.649 114.549L110.28 114.273L110.16 114.394L109.685 114.861L110.766 115.433L109.387 115.154L108.793 115.74L109.881 116.317L108.492 116.036L107.9 116.619L108.998 117.201L107.597 116.918L107.008 117.499L108.114 118.085L106.703 117.8L106.115 118.378L107.23 118.969L105.808 118.682L105.223 119.258L106.346 119.853L104.913 119.564L104.331 120.137L105.462 120.736L104.018 120.444L103.438 121.016L104.578 121.62L103.123 121.326L102.602 121.84L102.545 121.896L103.694 122.504L102.228 122.208L101.653 122.774L102.811 123.388L101.334 123.09L100.762 123.655L101.927 124.272L100.593 124.003C100.576 124.097 100.571 124.207 100.591 124.354C100.207 124.283 100.105 123.703 100.396 123.408L101.026 122.765L102.268 121.505L104.75 118.986L109.714 113.947L119.709 103.939L121.821 101.831L121.024 101.034L99.516 122.542C98.703 123.356 98.703 124.675 99.516 125.488C100.33 126.302 101.648 126.302 102.462 125.488L123.97 103.98L122.276 102.286L121.188 103.377Z" fill="#231F1F"/>
<path fill-rule="evenodd" clip-rule="evenodd" d="M152.383 126.007C152.163 126.033 151.912 125.844 151.815 125.734L151.053 124.984L149.532 123.483L146.491 120.479L140.408 114.472L128.299 102.403L116.19 90.3307L110.172 84.2597L108.667 82.7417C108.163 82.2047 107.704 81.7847 107.073 81.5447C105.835 81.0737 104.418 81.2947 103.224 82.0997C103.546 81.6087 104.027 81.2457 104.576 81.0167L105.226 79.8177L105.026 80.8577C105.303 80.7837 105.592 80.7547 105.882 80.7477L106.645 79.2047L106.285 80.7577C106.538 80.7807 106.786 80.8347 107.028 80.9127L107.808 79.3077L107.393 81.0437C107.625 81.1367 107.843 81.2597 108.05 81.4017L108.692 80.1917L108.396 81.6537C108.61 81.8297 108.805 82.0127 108.982 82.1947L109.575 81.0747L109.288 82.4987L109.868 83.0747L110.459 81.9597L110.173 83.3767L110.616 83.8157L110.755 83.9537L111.343 82.8427L111.058 84.2547L111.641 84.8317L112.227 83.7267L111.944 85.1317L112.528 85.7107L113.111 84.6107L112.828 86.0087L113.415 86.5897L113.995 85.4947L113.714 86.8857L114.301 87.4687L114.879 86.3787L114.599 87.7637L115.188 88.3477L115.763 87.2627L115.484 88.6417L116.074 89.2267L116.647 88.1467L116.369 89.5187L116.687 89.8337L116.96 90.1077L117.53 89.0297L117.254 90.4017L117.843 90.9927L118.414 89.9137L118.137 91.2877L118.726 91.8787L119.298 90.7977L119.02 92.1737L119.609 92.7647L120.182 91.6817L119.904 93.0607L120.491 93.6507L121.066 92.5657L120.787 93.9457L121.374 94.5357L121.95 93.4497L121.671 94.8327L122.258 95.4217L122.834 94.3337L122.554 95.7187L123.14 96.3067L123.717 95.2177L123.437 96.6057L124.023 97.1927L124.602 96.1017L124.321 97.4907L124.906 98.0777L125.486 96.9857L125.204 98.3777L125.789 98.9637L126.369 97.8687L126.088 99.2637L126.672 99.8497L127.253 98.7527L126.971 100.151L127.555 100.736L128.137 99.6367L127.854 101.036L128.438 101.621L129.021 100.521L128.738 101.922L128.758 101.943L129.321 102.507L129.904 101.404L129.621 102.809L130.203 103.393L130.789 102.288L130.505 103.695L131.086 104.278L131.673 103.173L131.388 104.581L131.969 105.164L132.556 104.057L132.271 105.468L132.852 106.05L133.44 104.941L133.155 106.354L133.735 106.937L134.324 105.824L134.038 107.24L134.618 107.822L135.208 106.708L134.922 108.127L135.501 108.708L136.092 107.592L135.805 109.013L136.383 109.594L136.976 108.476L136.688 109.9L137.267 110.48L137.86 109.36L137.571 110.785L138.15 111.365L138.743 110.243L138.455 111.672L139.032 112.251L139.628 111.127L139.339 112.559L139.915 113.137L140.511 112.012L140.222 113.444L140.798 114.023L141.395 112.896L141.105 114.333L141.678 114.913L142.279 113.779L141.987 115.226L142.558 115.805L143.163 114.663L142.869 116.119L143.438 116.695L144.047 115.547L143.751 117.013L144.319 117.587L144.931 116.431L144.633 117.905L145.198 118.478L145.815 117.315L145.515 118.799L146.078 119.369L146.698 118.198L146.397 119.692L146.835 120.135L146.958 120.26L147.582 119.082L147.279 120.585L147.839 121.152L148.466 119.966L148.161 121.479L148.718 122.043L149.35 120.851L149.043 122.371L149.598 122.934L150.234 121.735L149.925 123.265L150.479 123.825L151.118 122.618L150.808 124.155L150.803 124.153L151.34 124.697L151.359 124.716L152.002 123.502L151.692 125.039L151.668 125.03L152.089 125.459C152.135 125.52 152.184 125.57 152.236 125.613L152.886 124.386L152.611 125.746C152.694 125.745 152.784 125.731 152.888 125.695C152.813 125.872 152.608 126.009 152.383 126.007ZM90.3878 65.1767C89.2678 66.3707 88.1088 67.5257 86.9698 68.6997L86.1008 69.5517C85.8748 69.7827 85.7548 70.1117 85.7778 70.4397C85.8038 70.7837 85.9458 71.0457 86.2438 71.3207C86.5318 71.6107 86.8108 71.9107 87.0888 72.2117C88.2088 73.4047 89.3208 74.6057 90.3828 75.8577C89.1318 74.7957 87.9308 73.6827 86.7368 72.5627C86.4368 72.2857 86.1368 72.0067 85.8468 71.7177C85.5318 71.4557 85.2128 70.9727 85.1888 70.4887C85.1418 70.0007 85.3108 69.4907 85.6488 69.1277L86.5108 68.2407C87.6858 67.1017 88.8408 65.9437 90.0338 64.8237C91.2278 63.7037 92.4288 62.5907 93.6808 61.5297C92.6198 62.7817 91.5078 63.9837 90.3878 65.1767ZM91.7858 77.4717C91.5948 77.2567 91.3978 77.0467 91.2818 76.7557C91.5718 76.8717 91.7818 77.0687 91.9978 77.2597C92.1888 77.4757 92.3868 77.6847 92.5018 77.9757C92.2098 77.8607 92.0008 77.6627 91.7858 77.4717ZM153.948 123.798L110.352 80.2017C109.493 79.3427 109.493 77.9517 110.352 77.0927L113.158 74.2867C114.016 73.4287 114.016 72.0367 113.158 71.1777L99.6328 57.6537C98.4738 56.4947 96.5938 56.4947 95.4348 57.6537L84.8458 68.2427C83.6868 69.4027 83.6868 71.2817 84.8458 72.4417L98.3698 85.9657C99.2288 86.8237 100.621 86.8237 101.479 85.9657L104.285 83.1597C105.144 82.3007 106.535 82.3007 107.394 83.1597L150.99 126.756C151.807 127.573 153.132 127.573 153.948 126.756C154.765 125.94 154.765 124.615 153.948 123.798Z" fill="#231F1F"/>
<mask id="mask0" mask-type="alpha" maskUnits="userSpaceOnUse" x="0" y="7" width="21" height="28">
<path d="M0 7.28198V34.869H20.5717V7.28198H0H0Z" fill="white"/>
</mask>
<g mask="url(#mask0)">
<path fill-rule="evenodd" clip-rule="evenodd" d="M10.72 19.893C12.296 19.893 13.518 18.671 13.518 16.937C13.518 15.203 12.296 14.02 10.72 14.02H7.054V19.893H10.72ZM10.72 7.28198C13.518 7.28198 15.843 8.18798 17.735 9.99998C19.626 11.814 20.572 14.139 20.572 16.937C20.572 19.735 19.626 22.061 17.735 23.873C15.843 25.686 13.518 26.593 10.72 26.593H7.054V34.869H0V7.28198H10.72Z" fill="#231F1F"/>
</g>
<mask id="mask1" mask-type="alpha" maskUnits="userSpaceOnUse" x="0" y="0" width="252" height="173">
<path d="M0 172.683H252V0H0V172.683Z" fill="white"/>
</mask>
<g mask="url(#mask1)">
<path fill-rule="evenodd" clip-rule="evenodd" d="M26.2891 34.869H33.3441V7.28198H26.2891V34.869Z" fill="#231F1F"/>
<path fill-rule="evenodd" clip-rule="evenodd" d="M56.3185 7.28149H63.3335V34.8685H57.8945L48.1605 20.9965V34.8685H41.1055V7.28149H46.5835L56.3185 21.1545V7.28149Z" fill="#231F1F"/>
<path fill-rule="evenodd" clip-rule="evenodd" d="M72.516 31.3612C69.796 28.6032 68.457 25.1742 68.457 21.0742C68.457 16.9762 69.796 13.5482 72.516 10.8282C75.235 8.07019 78.703 6.69019 82.842 6.69019C85.324 6.69019 87.65 7.28119 89.777 8.46319C91.906 9.64619 93.56 11.2222 94.783 13.2332L88.675 16.7402C87.61 14.8092 85.403 13.5872 82.842 13.5872C80.634 13.5872 78.861 14.2962 77.481 15.6752C76.141 17.0552 75.472 18.8282 75.472 21.0742C75.472 23.3222 76.141 25.1342 77.481 26.5132C78.861 27.8932 80.634 28.5632 82.842 28.5632C85.403 28.5632 87.61 27.3802 88.675 25.3702L94.783 28.9172C92.379 32.9772 87.886 35.4602 82.842 35.4602C78.703 35.4602 75.235 34.0802 72.516 31.3612Z" fill="#231F1F"/>
<path fill-rule="evenodd" clip-rule="evenodd" d="M115.357 7.28149H122.372V34.8685H115.357V24.2675H107.594V34.8685H100.539V7.28149H107.594V17.4895H115.357V7.28149Z" fill="#231F1F"/>
<path fill-rule="evenodd" clip-rule="evenodd" d="M158.237 7.28149V34.8685H151.222V20.0105L144.521 31.0855H143.812L137.152 20.0505V34.8685H130.098V7.28149H137.152L144.167 19.0645L151.222 7.28149H158.237Z" fill="#231F1F"/>
<path fill-rule="evenodd" clip-rule="evenodd" d="M174.282 24.8193H179.838L177.041 15.4393L174.282 24.8193ZM182.834 34.8682L181.651 30.8883H172.469L171.287 34.8682H163.641L172.745 7.28125H181.337L190.441 34.8682H182.834Z" fill="#231F1F"/>
<path fill-rule="evenodd" clip-rule="evenodd" d="M211.641 7.28149H218.657V34.8685H213.218L203.483 20.9965V34.8685H196.43V7.28149H201.908L211.641 21.1545V7.28149Z" fill="#231F1F"/>
<path fill-rule="evenodd" clip-rule="evenodd" d="M230.246 28.6029L236.276 25.0949C237.301 27.5389 239.114 28.7599 241.714 28.7599C243.882 28.7599 244.947 28.1289 244.947 26.9079C244.947 26.0809 244.316 25.4499 243.094 24.9369C242.582 24.7399 241.399 24.3859 239.626 23.8729C234.581 22.4159 231.429 19.9719 231.429 15.2429C231.429 12.6809 232.335 10.6309 234.147 9.05494C236 7.47794 238.285 6.68994 241.005 6.68994C245.616 6.68994 249.36 8.89694 251.252 12.9959L245.341 16.4639C244.473 14.4149 243.055 13.3899 241.045 13.3899C239.35 13.3899 238.483 14.1389 238.483 15.2029C238.483 16.4239 239.468 17.0949 243.212 18.1979C244.552 18.5919 245.616 18.9469 246.444 19.3009C247.272 19.6569 248.138 20.1289 249.124 20.7999C251.056 22.0609 252.001 24.1089 252.001 26.8299C252.001 29.5479 251.056 31.6379 249.124 33.1739C247.193 34.7109 244.67 35.4599 241.517 35.4599C235.684 35.4599 231.783 32.8189 230.246 28.6029Z" fill="#231F1F"/>
<path fill-rule="evenodd" clip-rule="evenodd" d="M229.262 0.000488281L227.314 7.28149H224.207L225.019 0.000488281H229.262Z" fill="#231F1F"/>
<path fill-rule="evenodd" clip-rule="evenodd" d="M6.17063 58.7757L6.37063 58.7497C9.97363 58.2817 12.6296 60.3287 13.0276 63.3977C13.2656 65.2317 12.7116 66.5757 11.7176 67.6717L9.41463 66.0027C9.95063 65.4247 10.3686 64.7257 10.2496 63.8087C10.0716 62.4417 8.72263 61.5817 6.73763 61.8397L6.67063 61.8487C4.58663 62.1187 3.56963 63.3017 3.74463 64.6527C3.87463 65.6537 4.48663 66.1847 5.17263 66.6377L3.48463 68.7907C2.19363 67.9907 1.19163 66.7987 0.938627 64.8467C0.550627 61.8617 2.53463 59.2477 6.17063 58.7757Z" fill="#231F1F"/>
<path fill-rule="evenodd" clip-rule="evenodd" d="M9.80797 83.2761L12.801 81.2481L9.18597 81.1801L9.80797 83.2761ZM16.067 78.7171L16.937 81.6511L6.77097 89.0001L5.86797 85.9531L7.70197 84.6901L6.64997 81.1441L4.42797 81.1011L3.54297 78.1201L16.067 78.7171Z" fill="#231F1F"/>
<path fill-rule="evenodd" clip-rule="evenodd" d="M21.0625 93.0593L24.5065 100.285L22.0475 101.456L19.9055 96.9633L18.0235 97.8603L19.9475 101.898L17.5955 103.019L15.6705 98.9813L11.7385 100.855L10.4375 98.1223L21.0625 93.0593Z" fill="#231F1F"/>
<path fill-rule="evenodd" clip-rule="evenodd" d="M35.6745 108.708L36.5175 111.505L33.8925 110.551L32.6745 108.735L35.6745 108.708ZM28.6725 107.549L33.1885 114.281L30.9815 115.762L28.1325 111.516L26.5265 112.592L29.0935 116.42L27.0115 117.816L24.4455 113.988L22.7685 115.112L25.6535 119.415L23.4465 120.896L18.8945 114.106L28.6725 107.549Z" fill="#231F1F"/>
<path fill-rule="evenodd" clip-rule="evenodd" d="M47.9346 134.661L47.9456 134.648C48.3156 134.235 48.3246 133.747 47.9606 133.421C47.5846 133.085 47.0546 133.175 46.6726 133.599L46.6616 133.612C46.3366 133.976 46.2056 134.399 46.1476 135.07C46.9556 135.252 47.5306 135.112 47.9346 134.661ZM43.6446 139.33L43.7526 136.56C43.1296 136.5 42.6416 136.718 42.3276 137.068L42.3056 137.094C41.8116 137.644 41.8746 138.356 42.4396 138.861C42.7526 139.14 43.1776 139.296 43.6446 139.33ZM43.6136 141.582C42.5146 141.501 41.5166 141.127 40.6146 140.319C38.9726 138.85 38.5616 136.812 39.9636 135.246L39.9976 135.208C40.9506 134.143 42.2186 133.811 43.8246 134.211C43.9696 133.167 44.2526 132.472 44.7906 131.87L44.8246 131.833C45.9226 130.604 47.8306 130.439 49.3856 131.83C50.8646 133.153 50.9616 134.91 49.8396 136.163L49.8066 136.201C48.8746 137.241 47.6006 137.432 46.1876 137.093L46.1236 138.954C46.6626 138.781 47.2556 138.522 47.8946 138.236L48.8516 140.244C47.9026 140.749 46.9826 141.122 46.1026 141.349L46.0976 143.398L43.6136 143.07V141.582Z" fill="#231F1F"/>
<path fill-rule="evenodd" clip-rule="evenodd" d="M71.1117 155.565L71.7047 151.997L69.1637 154.572L71.1117 155.565ZM72.1207 147.886L74.8477 149.277L73.1687 161.713L70.3357 160.268L70.6847 158.067L67.3897 156.385L65.8257 157.967L63.0547 156.554L72.1207 147.886Z" fill="#231F1F"/>
<path fill-rule="evenodd" clip-rule="evenodd" d="M88.4604 161.001C89.4374 161.314 90.1934 160.939 90.4814 160.043L90.4914 160.011C90.8014 159.05 90.3464 158.374 89.3854 158.064L87.9774 157.612L87.0354 160.543L88.4604 161.001ZM85.9184 154.177L90.3224 155.592C91.8274 156.076 92.8354 156.842 93.3194 157.811C93.7434 158.636 93.8174 159.612 93.4514 160.75L93.4264 160.83C92.8914 162.495 91.7404 163.273 90.3644 163.485L91.3634 168.293L88.1124 167.248L87.3244 163.162L86.2994 162.832L85.1824 166.307L82.3164 165.386L85.9184 154.177Z" fill="#231F1F"/>
<path fill-rule="evenodd" clip-rule="evenodd" d="M104.782 161.953L101.91 161.492L102.342 158.803L111.075 160.203L110.643 162.893L107.77 162.432L106.338 171.365L103.35 170.886L104.782 161.953Z" fill="#231F1F"/>
<path fill-rule="evenodd" clip-rule="evenodd" d="M119.354 160.817L122.378 160.923L121.965 172.683L118.941 172.577L119.354 160.817Z" fill="#231F1F"/>
<path fill-rule="evenodd" clip-rule="evenodd" d="M131.537 171.044L132.94 168.702C133.968 169.399 135.105 169.834 136.245 169.728C137.047 169.653 137.433 169.263 137.387 168.761L137.385 168.744C137.341 168.275 136.963 168.023 135.545 167.666C133.265 167.118 131.634 166.46 131.436 164.334L131.432 164.284C131.233 162.158 132.719 160.518 135.28 160.278C136.853 160.132 138.283 160.438 139.597 161.312L138.283 163.696C137.421 163.152 136.408 162.791 135.454 162.88C134.768 162.942 134.414 163.314 134.454 163.749L134.456 163.766C134.505 164.284 134.898 164.519 136.438 164.933C138.732 165.444 140.206 166.219 140.391 168.211L140.394 168.244C140.606 170.522 138.98 172.091 136.469 172.325C134.727 172.486 133.021 172.105 131.537 171.044Z" fill="#231F1F"/>
<path fill-rule="evenodd" clip-rule="evenodd" d="M155.172 164.278L153.27 161.2L153.05 164.811L155.172 164.278ZM150.879 157.828L153.849 157.083L160.766 167.555L157.682 168.33L156.497 166.442L152.907 167.344L152.772 169.565L149.754 170.323L150.879 157.828Z" fill="#231F1F"/>
<path fill-rule="evenodd" clip-rule="evenodd" d="M165.391 153.505L167.998 152.368L173.957 156.233L171.592 150.803L174.322 149.613L179.025 160.409L176.557 161.484L170.359 157.451L172.825 163.11L170.096 164.3L165.391 153.505Z" fill="#231F1F"/>
<path fill-rule="evenodd" clip-rule="evenodd" d="M199.409 141.789L198.025 142.886L199.455 144.691L200.853 143.584C201.592 143 201.766 142.326 201.316 141.758L201.305 141.745C200.878 141.205 200.187 141.173 199.409 141.789ZM198.238 138.469C197.799 137.915 197.164 137.926 196.452 138.489L195.278 139.418L196.647 141.145L197.781 140.247C198.505 139.673 198.697 139.049 198.248 138.482L198.238 138.469ZM191.406 139.268L195.228 136.24C196.336 135.363 197.401 134.948 198.381 135.074C199.055 135.14 199.676 135.463 200.199 136.122L200.239 136.175C201.075 137.229 200.97 138.343 200.477 139.291C201.758 138.877 202.938 138.93 203.898 140.143L203.939 140.195C205.193 141.777 204.726 143.734 202.551 145.457L198.715 148.496L191.406 139.268Z" fill="#231F1F"/>
<path fill-rule="evenodd" clip-rule="evenodd" d="M213.926 128.537L210.648 127.009L212.446 130.146L213.926 128.537ZM206.801 125.505L208.872 123.252L220.399 128.206L218.248 130.546L216.222 129.619L213.717 132.344L214.822 134.271L212.717 136.562L206.801 125.505Z" fill="#231F1F"/>
<path fill-rule="evenodd" clip-rule="evenodd" d="M216.574 113.894L218.244 111.369L222.13 113.938L220.035 108.661L221.955 105.756L224.123 111.566L231.841 112.152L229.892 115.098L225.007 114.711L225.512 116.173L228.066 117.863L226.396 120.388L216.574 113.894Z" fill="#231F1F"/>
<path fill-rule="evenodd" clip-rule="evenodd" d="M225.781 98.6825L229.166 91.3225L231.579 92.4325L229.445 97.0745L231.2 97.8815L233.125 93.6975L235.399 94.7445L233.476 98.9275L235.308 99.7705L237.471 95.0685L239.884 96.1765L236.47 103.599L225.781 98.6825Z" fill="#231F1F"/>
<path fill-rule="evenodd" clip-rule="evenodd" d="M238.945 80.3207C239.225 79.3337 238.824 78.5907 237.918 78.3347L237.885 78.3247C236.915 78.0497 236.255 78.5267 235.98 79.4977L235.576 80.9217L238.537 81.7597L238.945 80.3207ZM232.215 83.0967L233.476 78.6477C233.908 77.1277 234.637 76.0927 235.588 75.5767C236.398 75.1247 237.373 75.0157 238.521 75.3417L238.602 75.3647C240.285 75.8417 241.103 76.9647 241.362 78.3317L246.132 77.1657L245.2 80.4507L241.144 81.3807L240.851 82.4157L244.362 83.4117L243.54 86.3067L232.215 83.0967Z" fill="#231F1F"/>
<path fill-rule="evenodd" clip-rule="evenodd" d="M243.942 64.4539L236.164 67.3019L236.577 63.9789L241.042 62.5519L237.063 60.0569L237.47 56.7849L244.282 61.4449L248.688 61.9929L248.316 64.9969L243.942 64.4539Z" fill="#231F1F"/>
</g>
</svg>
