<?xml version="1.0" encoding="UTF-8"?>
<svg width="418px" height="256px" viewBox="0 0 418 256" version="1.1" xmlns="http://www.w3.org/2000/svg" xmlns:xlink="http://www.w3.org/1999/xlink">
    <!-- Generator: Sketch 43.2 (39069) - http://www.bohemiancoding.com/sketch -->
    <title>Page 1</title>
    <desc>Created with Sketch.</desc>
    <defs>
        <polygon id="path-1" points="391.360354 58.6179743 0.013844586 58.6179743 0.013844586 0.325862648 391.360354 0.325862648 391.360354 58.6179743"></polygon>
    </defs>
    <g id="V3" stroke="none" stroke-width="1" fill="none" fill-rule="evenodd">
        <g id="1-Homepage" transform="translate(-491.000000, -557.000000)">
            <g id="Page-1" transform="translate(491.000000, 557.000000)">
                <g id="Group-3" transform="translate(13.312102, 197.192731)">
                    <mask id="mask-2" fill="white">
                        <use xlink:href="#path-1"></use>
                    </mask>
                    <g id="Clip-2"></g>
                    <path d="M391.360354,44.6037488 C361.280329,29.7387635 329.179526,18.7612156 296.248048,11.4153176 C287.991883,9.71006744 279.701106,8.11938877 271.397017,6.57933472 L246.29838,3.09955861 C237.885131,2.33752495 229.453246,1.7513452 221.03201,1.07190959 L195.685768,0.325862648 L170.342189,1.0772385 C161.91829,1.75933856 153.486405,2.33486049 145.078482,3.11554533 L119.979845,6.59265699 C111.675755,8.13004658 103.384978,9.73404752 95.1288127,11.4313043 C62.1999975,18.7798667 30.0991949,29.7520857 0.013844586,44.6037488 C31.7711949,33.8366927 64.0237554,25.2731396 96.7422395,19.5578871 C100.158125,19.0383187 103.568685,18.534737 106.979246,18.023162 C78.1958191,24.5723884 50.1552076,34.3189588 23.9596535,47.5479698 C51.9337045,38.3502768 80.2485452,30.9803987 108.952099,26.0644823 C110.895666,25.7793857 112.836571,25.4942892 114.780138,25.2118572 C90.7624433,31.02303 67.3917172,39.4187226 45.5918191,50.7239982 C70.1473223,42.9411299 94.9051694,36.65302 119.977182,32.4565059 C126.231208,31.563914 132.482571,30.7139534 138.704647,29.7254412 C136.61731,30.165076 134.521985,30.5594151 132.445297,31.0203655 C111.798227,35.9256242 91.7342268,43.2448776 73.2144306,53.3058536 C93.4035643,47.3294846 113.621985,42.4188971 134.058724,39.1469483 C138.904329,38.4941572 143.741946,37.8626818 148.555603,37.1272927 C147.772851,37.3138044 146.987437,37.481665 146.207348,37.6788345 C130.089055,41.6835079 114.465972,47.654548 100.214036,55.9463269 C116.137972,51.739155 131.912813,48.1767808 147.823437,45.8054173 C151.854341,45.221902 155.885246,44.710327 159.921475,44.2653633 C159.884201,44.2733566 159.846927,44.28135 159.809654,44.2893433 C148.182864,47.4680362 136.9368,52.0588894 126.907462,58.6187736 C138.033717,56.2953702 148.861781,54.1478208 159.732443,52.7223383 C156.614749,54.424924 153.619526,56.3459949 150.869246,58.6187736 C158.840532,57.5370055 166.337908,56.3459949 173.813985,55.6079413 C181.271424,54.8325853 188.643666,54.4302529 196.018571,54.4355818 C203.396138,54.4462396 210.765717,54.8459076 218.223157,55.6212635 C225.696571,56.364646 233.193946,57.5476633 241.170558,58.6187736 C238.502813,56.4099417 235.603437,54.5394955 232.586915,52.8715477 C243.138087,54.2996947 253.659972,56.3726394 264.466736,58.6187736 C254.461361,52.0588894 243.244583,47.4680362 231.639093,44.2973367 C235.611424,44.7369715 239.581093,45.2458821 243.545437,45.821404 C259.456061,48.195432 275.230902,51.7524772 291.160163,55.9463269 C276.913552,47.6412257 261.290469,41.6648568 245.166851,37.6655122 C244.493259,37.4949872 243.814341,37.3484423 243.135424,37.1859106 C247.845246,37.8999841 252.573704,38.5314596 257.31015,39.162935 C277.746889,42.4375482 297.962647,47.3428069 318.157106,53.3058536 C299.645297,43.2315553 279.581297,35.906973 258.931564,31.0043788 C257.011959,30.5780663 255.073717,30.2157006 253.146125,29.8080392 C259.208456,30.764578 265.297411,31.6092097 271.391692,32.4724926 C296.461042,36.6690067 321.221552,42.9544522 345.779717,50.7239982 C324.086316,39.4586894 300.830074,31.081648 276.921539,25.2758041 C278.755946,25.5449138 280.587692,25.8113592 282.419437,26.080469 C311.120329,30.9990499 339.435169,38.363599 367.411883,47.5479698 C341.330813,34.3615901 313.412673,24.6389997 284.749055,18.0951022 C288.039806,18.5853616 291.33322,19.075621 294.626634,19.5712094 C327.345118,25.2891263 359.597679,33.850015 391.360354,44.6037488" id="Fill-1" fill="#47342F" mask="url(#mask-2)"></path>
                </g>
                <path d="M208.998935,102.102653 L154.483215,99.0038934 C157.132324,97.7356136 159.813381,96.5419385 162.539699,95.4601704 L255.423559,95.4601704 C258.155203,96.5419385 260.838922,97.7356136 263.490693,99.0038934 L208.998935,102.102653 Z M223.825954,87.4668103 L194.129317,87.4668103 C199.06012,86.883295 204.022871,86.5635606 208.998935,86.5928696 C213.959024,86.5635606 218.908464,86.8859595 223.825954,87.4668103 L223.825954,87.4668103 Z M306.624566,198.041625 L335.72482,199.347208 C336.180094,202.600505 336.555496,205.867125 336.795113,209.160389 C337.950604,192.403642 335.346757,175.265878 329.473457,159.217875 C323.520285,143.196517 314.26305,128.270249 302.303457,115.784621 C290.423738,103.208401 275.775101,93.2646608 259.832527,86.3477399 C243.826056,79.5267392 226.408502,76.0549565 208.998935,75.940385 C191.592031,76.0682787 174.169152,79.5214103 158.170668,86.3610621 C142.225432,93.2699897 127.587445,103.224388 115.705062,115.795279 C103.748132,128.278243 94.4908968,143.20451 88.5350624,159.22054 C82.6591006,175.268542 80.0552535,192.403642 81.2027567,209.160389 C81.4397121,205.867125 81.8151134,202.597841 82.2703873,199.347208 L110.654451,198.041625 L82.6218268,196.75203 C83.0504764,194.036952 83.5856229,191.345854 84.1660306,188.670743 L115.279075,187.383812 L84.7464382,186.120861 C85.2922344,183.826767 85.8832917,181.548659 86.5462344,179.294531 L118.860031,176.725998 L88.1383618,174.282695 C88.7853299,172.374946 89.4722344,170.485849 90.2044,168.612738 L123.362183,166.068185 L92.262451,163.680835 C92.6245401,162.860183 92.9600051,162.028874 93.3407312,161.216215 C93.8465911,160.107803 94.4030369,159.026035 94.9408459,157.933609 L129.741343,155.410371 L97.4754701,153.070981 C98.5537503,151.104615 99.6826166,149.167557 100.862069,147.262473 L138.18654,144.752558 L103.990413,142.453135 C105.031419,140.923738 106.104375,139.420987 107.209279,137.942215 L150.524196,134.094744 L112.94147,130.756184 C113.958515,129.575831 115.010171,128.430116 116.069814,127.287066 L166.094031,123.436931 L123.2264,120.138338 C124.517674,118.949991 125.82226,117.785625 127.158795,116.655897 L197.348183,112.779117 L136.565126,109.421906 C138.28505,108.222902 140.036922,107.071858 141.812757,105.960781 L208.998935,102.139955 L276.155827,105.958117 C277.934324,107.069194 279.686196,108.222902 281.408782,109.424571 L220.649687,112.779117 L290.815113,116.655897 C292.151648,117.785625 293.458897,118.952656 294.750171,120.141002 L251.903839,123.436931 L301.906757,127.284402 C302.9664,128.427452 304.018056,129.578496 305.037763,130.758849 L267.473674,134.094744 L310.769954,137.939551 C311.874859,139.420987 312.947814,140.926403 313.991483,142.455799 L279.81133,144.752558 L317.117164,147.262473 C318.296617,149.167557 319.428145,151.104615 320.506425,153.070981 L288.256527,155.410371 L323.04105,157.933609 C323.581521,159.026035 324.137967,160.110467 324.646489,161.221544 C325.024553,162.031538 325.360018,162.862847 325.722107,163.683499 L294.635687,166.068185 L327.780158,168.610073 C328.512324,170.485849 329.20189,172.374946 329.848859,174.285359 L299.137839,176.725998 L331.443648,179.294531 C332.106591,181.548659 332.697648,183.826767 333.246107,186.120861 L302.718795,187.383812 L333.823852,188.670743 C334.406922,191.345854 334.939406,194.034287 335.370718,196.75203 L306.624566,198.041625 Z" id="Fill-4" fill="#47342F"></path>
                <polygon id="Fill-6" fill="#47342F" points="208.998935 0 207.667725 62.947711 210.330145 62.947711"></polygon>
                <polygon id="Fill-8" fill="#47342F" points="223.733302 40.610799 220.405276 63.3865465 223.05971 63.6210184"></polygon>
                <polygon id="Fill-10" fill="#47342F" points="197.592594 63.3873458 194.264568 40.6115983 194.938161 63.6191532"></polygon>
                <polygon id="Fill-12" fill="#47342F" points="172.472391 67.5843928 165.24392 45.7305462 169.900493 68.2744862"></polygon>
                <polygon id="Fill-14" fill="#47342F" points="137.550222 55.8181666 146.048668 77.2083983 148.463483 76.0813346"></polygon>
                <polygon id="Fill-16" fill="#47342F" points="112.029857 70.5637845 124.111921 90.1528457 126.292443 88.6234495"></polygon>
                <polygon id="Fill-18" fill="#47342F" points="104.751066 106.713489 106.633397 104.829721 89.4554611 89.5197716"></polygon>
                <polygon id="Fill-20" fill="#47342F" points="70.5126064 112.112471 88.5584917 126.385948 90.086721 124.203761"></polygon>
                <polygon id="Fill-22" fill="#47342F" points="77.1518841 146.15859 55.7779732 137.653655 76.0283427 148.572585"></polygon>
                <polygon id="Fill-24" fill="#47342F" points="68.2247885 170.027829 45.7007121 165.365036 67.5352217 172.601691"></polygon>
                <polygon id="Fill-26" fill="#47342F" points="63.5732739 195.08648 40.5806115 194.409709 63.3416433 197.740276"></polygon>
                <polygon id="Fill-28" fill="#47342F" points="252.755814 45.7313455 245.527343 67.5851921 248.096578 68.2726211"></polygon>
                <polygon id="Fill-30" fill="#47342F" points="269.536517 76.0837326 271.94867 77.2081319 280.447116 55.8179002"></polygon>
                <polygon id="Fill-32" fill="#47342F" points="291.708089 88.6255811 293.888611 90.1549773 305.968013 70.5659161"></polygon>
                <polygon id="Fill-34" fill="#47342F" points="311.365538 104.829454 313.247869 106.713223 328.543474 89.5221696"></polygon>
                <polygon id="Fill-36" fill="#47342F" points="327.913279 124.204027 329.438846 126.386214 347.487394 112.112738"></polygon>
                <polygon id="Fill-38" fill="#47342F" points="341.971657 148.57445 362.222027 137.65552 340.848116 146.160455"></polygon>
                <polygon id="Fill-40" fill="#47342F" points="350.464778 172.602757 372.30195 165.368766 349.775211 170.028895"></polygon>
                <polygon id="Fill-42" fill="#47342F" points="354.425661 195.087812 354.657292 197.741608 377.418324 194.413706"></polygon>
                <polygon id="Fill-44" fill="#47342F" points="245.291186 3.1770942 233.057364 64.9391234 235.679848 65.4000739"></polygon>
                <polygon id="Fill-46" fill="#47342F" points="280.481195 12.6132558 257.717501 71.3084992 260.220176 72.2224067"></polygon>
                <polygon id="Fill-48" fill="#47342F" points="313.498935 28.0223226 280.894935 81.8682609 283.200591 83.2004875"></polygon>
                <polygon id="Fill-50" fill="#47342F" points="303.929397 98.0108516 343.341206 48.9342849 301.889983 96.2976081"></polygon>
                <polygon id="Fill-52" fill="#47342F" points="321.773471 116.196279 369.100656 74.7134042 320.061535 114.155308"></polygon>
                <polygon id="Fill-54" fill="#47342F" points="336.190478 137.206293 389.995331 104.580061 334.859268 134.898876"></polygon>
                <polygon id="Fill-56" fill="#47342F" points="346.742715 160.403024 405.393173 137.621948 345.832167 157.901102"></polygon>
                <polygon id="Fill-58" fill="#47342F" points="353.110159 185.080658 414.822401 172.837495 352.646898 182.458836"></polygon>
                <polygon id="Fill-60" fill="#47342F" points="355.097922 207.826031 355.097922 210.490484 417.997604 209.158258"></polygon>
                <polygon id="Fill-63" fill="#47342F" points="184.939707 64.9380577 172.705885 3.17602842 182.317223 65.3990081"></polygon>
                <polygon id="Fill-65" fill="#47342F" points="160.280902 71.3092986 137.517208 12.6140552 157.778227 72.2205416"></polygon>
                <polygon id="Fill-67" fill="#47342F" points="137.10187 81.8693266 104.49787 28.0233884 134.796214 83.2015533"></polygon>
                <polygon id="Fill-69" fill="#47342F" points="116.107887 96.2976081 74.6566637 48.9342849 114.068473 98.0108516"></polygon>
                <polygon id="Fill-71" fill="#47342F" points="97.936335 114.155041 48.897214 74.7131378 96.2243987 116.196012"></polygon>
                <polygon id="Fill-73" fill="#47342F" points="83.1383363 134.899676 28.0022726 104.580861 81.8071261 137.207092"></polygon>
                <polygon id="Fill-75" fill="#47342F" points="72.1662357 157.900037 12.6025669 137.623546 71.2556879 160.401958"></polygon>
                <polygon id="Fill-77" fill="#47342F" points="65.3504395 182.45777 3.17493631 172.839094 64.8871783 185.079593"></polygon>
                <polygon id="Fill-79" fill="#47342F" points="62.8999478 207.826031 0.000266242038 209.158258 62.8999478 210.490484"></polygon>
            </g>
        </g>
    </g>
</svg>