<?xml version="1.0" standalone="no"?>
<!DOCTYPE svg PUBLIC "-//W3C//DTD SVG 20010904//EN"
 "http://www.w3.org/TR/2001/REC-SVG-20010904/DTD/svg10.dtd">
<svg version="1.0" xmlns="http://www.w3.org/2000/svg"
 width="16.000000pt" height="16.000000pt" viewBox="0 0 16.000000 16.000000"
 preserveAspectRatio="xMidYMid meet">
<metadata>
Created by potrace 1.11, written by Peter Selinger 2001-2013
</metadata>
<g transform="translate(0.000000,16.000000) scale(0.001563,-0.001563)"
fill="#000000" stroke="none">
<path d="M1670 9274 c-30 -8 -75 -28 -100 -44 -25 -16 -338 -323 -697 -682
-745 -746 -708 -701 -708 -863 0 -163 -61 -91 879 -1033 909 -911 882 -887
996 -886 104 0 118 10 340 229 128 126 222 211 250 225 63 32 158 32 220 1 33
-17 759 -737 2655 -2631 2565 -2563 2611 -2609 2664 -2624 68 -20 84 -20 150
0 132 39 205 183 161 320 -10 32 -457 484 -2620 2649 -1864 1866 -2615 2623
-2631 2655 -31 59 -33 166 -4 225 11 23 106 128 225 250 224 228 230 238 230
346 0 109 22 84 -881 985 -459 458 -850 840 -869 850 -47 23 -127 44 -170 43
-19 0 -60 -7 -90 -15z m-425 -616 c-73 -89 -338 -372 -580 -621 -162 -166
-276 -292 -284 -312 -27 -67 -13 -92 147 -263 153 -163 303 -329 337 -372 26
-32 -94 72 -264 230 -74 69 -157 145 -185 170 -77 70 -106 122 -106 193 0 34
7 74 16 93 25 52 555 572 859 842 44 40 82 72 83 72 2 0 -8 -15 -23 -32z
m-140 -1793 c55 -55 72 -85 38 -66 -23 12 -92 81 -104 104 -19 34 11 17 66
-38z m1701 -349 c-8 -31 -11 -58 -8 -60 4 -2 25 -7 47 -10 l41 -7 34 70 c18
39 35 69 37 68 1 -2 -6 -37 -16 -79 l-18 -76 36 -18 c20 -10 38 -20 41 -21 3
-2 18 22 34 52 16 31 30 54 32 53 1 -2 -4 -32 -11 -68 l-14 -65 32 -32 c17
-18 34 -33 37 -33 4 0 19 21 34 48 27 47 27 47 21 12 -18 -108 -19 -103 18
-139 l35 -33 31 58 c35 69 36 67 15 -22 l-15 -67 32 -33 c18 -19 36 -34 39
-34 3 0 16 21 28 46 13 26 25 44 27 42 3 -2 -1 -32 -7 -66 -11 -62 -11 -62 17
-92 16 -17 32 -30 37 -30 4 0 21 24 38 53 19 32 29 42 25 27 -2 -14 -10 -47
-16 -75 l-10 -50 37 -34 37 -34 29 54 c19 35 27 45 23 26 -20 -98 -19 -110 18
-146 l35 -33 26 51 c15 28 28 51 30 51 2 0 -3 -30 -10 -67 l-14 -67 32 -33
c17 -18 35 -33 38 -33 3 0 16 20 30 45 13 24 26 43 27 41 2 -2 -3 -30 -11 -64
l-14 -60 38 -37 38 -37 26 48 c28 55 31 49 15 -26 -11 -51 -11 -52 22 -86 18
-19 36 -34 39 -34 4 0 17 22 30 50 13 27 25 48 27 46 2 -1 -3 -33 -10 -69
l-14 -66 36 -35 36 -35 24 44 c13 25 26 44 27 42 2 -2 -1 -29 -7 -61 l-12 -57
33 -34 c38 -39 47 -36 75 25 10 22 19 39 21 38 1 -2 -4 -32 -11 -68 l-14 -65
32 -32 c17 -18 34 -33 39 -33 4 0 19 21 33 48 19 34 24 39 20 19 -20 -98 -19
-110 18 -146 l35 -33 22 42 c12 23 24 40 27 37 3 -3 0 -29 -6 -58 -11 -52 -11
-53 21 -86 17 -18 35 -33 38 -33 4 0 19 21 34 48 21 35 26 40 21 19 -20 -96
-18 -110 18 -146 l35 -33 26 48 c28 55 31 49 15 -26 -11 -51 -11 -52 22 -86
18 -19 36 -34 39 -34 4 0 17 22 30 50 13 27 25 48 27 46 2 -1 -3 -33 -10 -69
l-14 -66 36 -35 37 -36 24 45 c13 24 25 43 27 41 2 -1 -2 -28 -8 -60 l-12 -57
33 -34 c19 -19 37 -35 40 -35 4 0 17 22 30 50 13 27 25 49 26 47 1 -1 -4 -31
-11 -67 l-14 -65 37 -38 36 -37 29 52 c26 50 28 51 22 18 -18 -110 -19 -103
18 -138 l34 -33 26 43 c28 46 32 38 16 -31 -9 -42 -8 -46 23 -78 17 -18 35
-33 40 -33 4 0 19 21 33 48 19 34 24 39 20 19 -20 -98 -19 -110 18 -146 l35
-33 26 51 c15 28 28 51 30 51 2 0 -4 -30 -12 -66 l-14 -66 33 -34 c18 -19 36
-34 39 -34 3 0 16 21 28 46 13 26 25 45 27 43 2 -2 -3 -33 -10 -69 l-14 -65
32 -32 c17 -18 34 -33 37 -33 4 0 19 21 34 48 27 47 27 47 21 12 -18 -108 -19
-103 18 -139 l35 -33 31 58 c17 33 29 48 26 34 -3 -14 -10 -47 -15 -74 -11
-48 -10 -50 22 -83 17 -18 35 -33 38 -33 4 0 17 22 30 50 13 27 25 48 27 46 2
-2 -2 -33 -8 -70 l-13 -66 29 -30 c16 -17 32 -30 36 -30 4 0 22 24 39 53 17
28 30 45 27 37 -3 -9 -10 -42 -17 -74 l-12 -58 33 -34 c18 -19 36 -34 39 -34
4 0 17 22 30 50 13 27 25 49 26 47 2 -1 -2 -33 -9 -70 -11 -67 -11 -67 18 -97
16 -16 32 -30 37 -30 4 0 19 23 33 50 14 28 27 50 29 50 2 0 -3 -32 -11 -71
l-15 -72 35 -34 35 -35 27 51 c16 28 29 50 31 48 1 -1 -4 -31 -11 -67 l-14
-65 32 -32 c17 -18 34 -33 37 -33 4 0 19 21 34 48 27 47 27 47 21 12 -18 -108
-19 -103 18 -139 l35 -33 31 58 c35 69 36 67 15 -22 l-15 -67 32 -33 c18 -19
36 -34 39 -34 3 0 16 21 28 46 13 26 25 44 27 42 3 -2 -1 -32 -7 -66 l-12 -62
34 -35 34 -35 33 57 c19 33 31 47 28 33 -2 -14 -10 -47 -15 -74 -11 -48 -10
-50 22 -83 17 -18 35 -33 38 -33 4 0 17 22 30 50 13 27 25 48 27 46 2 -1 -3
-33 -10 -69 l-14 -66 31 -30 c18 -17 35 -31 39 -31 4 0 18 23 32 50 14 28 27
50 29 50 2 0 -3 -32 -11 -71 l-15 -72 35 -34 34 -35 31 54 c36 60 37 57 17
-27 l-14 -60 31 -32 c18 -18 35 -33 40 -33 4 0 19 21 33 48 26 46 26 47 20 12
-18 -110 -19 -103 18 -139 l35 -33 31 58 c34 67 36 64 16 -26 l-14 -65 36 -35
c19 -19 37 -30 39 -25 2 6 16 28 30 50 22 35 25 37 19 12 -20 -96 -18 -110 17
-145 l35 -33 32 58 c18 32 30 49 27 38 -2 -11 -10 -46 -16 -79 l-12 -59 35
-35 35 -35 31 59 c34 67 36 65 16 -26 l-14 -65 32 -32 c17 -18 34 -33 37 -33
3 0 16 21 28 46 13 26 25 44 28 41 3 -3 0 -33 -7 -67 l-12 -61 34 -35 33 -34
33 57 c37 65 38 64 18 -27 l-14 -65 32 -32 c17 -18 34 -33 37 -33 4 0 17 22
30 50 13 27 25 48 27 46 2 -2 -2 -33 -8 -70 l-13 -66 34 -35 34 -36 33 63 c17
35 32 60 33 56 0 -4 -7 -39 -15 -79 l-16 -73 34 -34 34 -34 31 54 c35 60 37
58 18 -29 l-13 -62 31 -30 c18 -17 35 -31 39 -31 4 0 20 26 37 58 17 31 28 48
26 37 -29 -126 -29 -134 -1 -170 14 -19 30 -35 35 -35 5 0 23 26 39 58 34 64
37 57 16 -38 l-14 -65 33 -34 34 -33 28 52 c32 58 40 55 25 -11 -11 -46 -7
-63 12 -52 7 4 6 0 -2 -10 -8 -10 -28 -17 -48 -17 -33 0 -77 42 -701 658 -367
361 -1541 1530 -2609 2597 -2182 2180 -1995 2005 -2161 2013 -103 5 -175 -8
-254 -46 -78 -38 -61 -8 28 50 52 34 72 54 95 98 l29 55 -6 -51 -6 -50 48 5
c49 6 49 6 84 73 40 77 48 75 26 -6z"/>
<path d="M8230 9142 c-128 -132 -173 -195 -217 -302 -53 -132 -68 -301 -37
-430 8 -36 66 -216 129 -400 119 -347 134 -377 179 -365 12 4 75 61 142 129
175 177 242 302 267 497 18 143 3 210 -133 611 -66 194 -120 353 -120 354 0
12 -37 34 -58 34 -21 0 -53 -26 -152 -128z m-10 -297 c-71 -145 -78 -268 -25
-471 37 -145 69 -303 62 -310 -8 -8 -85 171 -127 295 -41 121 -42 127 -38 225
4 85 10 111 35 166 26 56 109 167 119 158 1 -2 -10 -30 -26 -63z"/>
<path d="M9880 9169 c-235 -27 -465 -103 -610 -202 -60 -41 -154 -131 -195
-187 -92 -126 -140 -271 -156 -474 -11 -143 -34 -228 -91 -324 -24 -42 -258
-283 -888 -915 l-855 -858 -3 43 c-5 65 15 150 69 291 86 226 105 348 76 492
-21 103 -240 740 -263 766 -9 10 -26 19 -37 19 -25 0 -223 -193 -283 -277
-111 -154 -164 -365 -135 -539 6 -38 61 -217 123 -397 l111 -329 -682 -682
-681 -681 50 -50 50 -50 233 231 c888 880 1048 1032 1047 997 0 -4 -9 -19 -20
-33 -19 -25 -19 -25 7 -46 l26 -20 -37 4 c-32 4 -43 -1 -72 -29 -19 -18 -34
-36 -34 -39 0 -4 23 -17 51 -30 28 -13 52 -27 54 -30 2 -4 -29 0 -71 8 l-75
15 -29 -28 c-17 -16 -30 -32 -30 -36 0 -4 24 -21 53 -38 33 -20 43 -30 27 -26
-14 3 -47 10 -74 15 -48 11 -50 10 -82 -21 -18 -18 -31 -36 -28 -41 3 -4 26
-20 52 -34 47 -25 47 -25 12 -19 -110 18 -103 19 -139 -18 l-33 -35 58 -31
c67 -34 64 -36 -26 -16 l-65 14 -35 -36 c-19 -19 -30 -37 -25 -39 6 -2 28 -16
50 -30 35 -22 37 -25 12 -19 -96 20 -110 18 -145 -17 l-33 -35 58 -32 c32 -17
47 -29 33 -26 -14 3 -47 10 -74 15 -48 11 -50 10 -83 -22 -18 -17 -33 -35 -33
-38 0 -4 22 -17 50 -30 27 -13 48 -25 46 -27 -1 -2 -33 3 -69 10 l-66 14 -30
-31 c-17 -18 -31 -35 -31 -39 0 -4 18 -16 41 -27 23 -12 39 -24 36 -27 -3 -2
-31 1 -63 7 l-57 12 -35 -35 -35 -35 54 -32 c38 -22 46 -30 26 -26 -95 21
-110 19 -146 -17 l-33 -35 48 -26 c55 -28 49 -31 -26 -15 -51 11 -52 11 -86
-22 -19 -18 -34 -36 -34 -39 0 -3 21 -16 46 -28 26 -13 45 -25 43 -27 -2 -2
-32 2 -66 9 -56 12 -64 12 -77 -3 -14 -15 -6 -26 84 -116 l100 -100 683 683
683 683 324 -111 c372 -126 440 -140 579 -122 154 21 267 68 386 163 82 64
245 233 245 252 0 44 -41 63 -410 188 l-365 123 -132 1 -133 0 116 116 117
117 339 -115 c333 -113 341 -116 446 -120 119 -6 210 9 312 50 106 43 170 89
302 216 112 108 128 127 128 156 0 18 -6 37 -12 43 -13 10 -657 231 -738 253
-51 14 -220 17 -265 6 -25 -7 -9 13 92 115 l123 123 337 -115 338 -115 145 0
c125 0 155 3 214 23 153 51 247 115 399 270 102 104 116 133 80 164 -21 18
-670 241 -752 259 -32 7 -100 10 -162 7 -124 -5 -119 -15 -47 98 43 70 59 79
268 165 68 28 154 70 190 94 72 47 161 133 216 210 108 151 192 409 210 648 7
81 6 87 -12 86 -10 -1 -53 -5 -94 -10z m-180 -184 c0 -3 -37 -23 -82 -46 -228
-114 -356 -229 -465 -416 l-45 -78 6 44 c16 110 98 258 182 329 114 95 227
144 397 171 4 0 7 -1 7 -4z m-347 -1316 c95 -31 303 -127 295 -135 -9 -8 -169
27 -292 63 -103 31 -135 36 -216 36 -54 0 -119 -7 -150 -16 -30 -8 -56 -14
-58 -12 -6 6 101 68 141 80 76 24 178 19 280 -16z m-2589 -282 c-37 -79 -64
-185 -64 -259 0 -26 15 -107 34 -180 19 -73 41 -169 49 -213 33 -169 28 -171
-36 -17 -129 305 -143 427 -68 588 24 50 102 154 117 154 2 0 -13 -33 -32 -73z
m1858 -443 c92 -31 248 -100 277 -123 24 -18 23 -18 -57 -5 -45 8 -121 26
-169 41 -186 55 -262 64 -358 44 -22 -5 -56 -12 -75 -16 l-35 -8 27 22 c97 78
245 95 390 45z m-712 -729 c101 -36 288 -127 273 -132 -18 -6 -161 24 -292 63
-132 39 -245 45 -344 19 -71 -19 -77 -18 -52 1 32 25 112 64 152 74 63 16 180
5 263 -25z"/>
<path d="M7640 8542 c-21 -6 -183 -166 -239 -237 -65 -81 -104 -153 -137 -255
-24 -74 -27 -101 -28 -215 l-1 -130 129 -380 c70 -209 135 -386 144 -392 40
-32 65 -18 193 115 127 132 173 196 216 302 53 131 68 302 38 429 -19 79 -232
708 -251 737 -14 23 -40 33 -64 26z m-150 -427 c-37 -75 -60 -175 -60 -257 0
-41 15 -123 44 -238 24 -96 47 -202 50 -235 l7 -60 -36 75 c-71 147 -127 318
-132 405 -9 131 29 242 115 337 19 21 36 37 38 36 1 -2 -10 -30 -26 -63z"/>
<path d="M3238 2773 c-1257 -1259 -1287 -1289 -1302 -1342 -20 -68 -20 -94 -1
-158 17 -58 71 -119 130 -148 56 -27 157 -26 210 2 24 13 556 538 1323 1305
l1282 1283 -100 100 -100 100 -65 -65 -65 -65 52 -28 c50 -26 51 -28 18 -22
-110 18 -103 19 -138 -18 l-34 -35 44 -26 c46 -28 39 -31 -31 -15 -42 9 -46 8
-78 -23 -18 -17 -33 -35 -33 -40 0 -4 21 -19 48 -33 34 -19 39 -24 19 -20 -98
20 -110 19 -146 -18 l-33 -35 51 -26 c28 -15 51 -28 51 -30 0 -2 -30 3 -67 10
l-67 14 -33 -32 c-18 -17 -33 -34 -33 -37 0 -4 20 -17 45 -30 25 -13 44 -25
43 -27 -2 -1 -31 3 -65 10 l-62 13 -37 -38 -36 -37 48 -26 c55 -28 49 -31 -26
-15 -51 11 -52 11 -86 -22 -19 -18 -34 -36 -34 -39 0 -4 22 -17 50 -30 27 -13
49 -25 47 -26 -1 -1 -31 4 -67 11 l-65 14 -38 -37 -37 -36 46 -24 c25 -13 44
-25 42 -28 -3 -2 -31 1 -62 8 l-58 11 -35 -35 -36 -36 54 -31 c32 -19 44 -30
29 -26 -14 2 -45 9 -70 14 -43 10 -47 8 -77 -21 -18 -18 -33 -35 -33 -40 0 -4
21 -19 48 -33 34 -19 39 -24 19 -20 -98 20 -110 19 -146 -18 l-33 -35 51 -26
c28 -15 51 -28 51 -30 0 -2 -30 3 -67 10 l-67 14 -33 -32 c-18 -17 -33 -35
-33 -38 0 -3 20 -16 45 -30 24 -13 43 -25 42 -26 -1 -2 -30 3 -64 10 l-62 13
-37 -38 -36 -37 48 -26 c55 -28 49 -31 -26 -15 -51 11 -52 11 -86 -22 -19 -18
-34 -36 -34 -39 0 -4 22 -17 50 -30 27 -13 48 -25 46 -27 -1 -2 -33 3 -69 10
l-66 14 -35 -36 -35 -36 44 -24 c25 -13 44 -26 42 -27 -2 -2 -29 1 -60 7 -55
11 -56 11 -97 -21 -22 -18 -39 -34 -37 -36 2 -2 28 -17 58 -34 31 -18 43 -28
29 -25 -14 3 -47 10 -74 15 -48 11 -50 10 -83 -22 -18 -17 -33 -35 -33 -38 0
-4 22 -17 50 -30 27 -13 48 -25 46 -27 -1 -2 -33 3 -69 10 l-66 14 -35 -36
-36 -37 46 -22 c26 -13 44 -25 41 -28 -3 -3 -31 0 -63 6 l-57 12 -35 -35 -35
-35 54 -31 c61 -35 59 -36 -28 -17 l-62 13 -30 -31 c-17 -18 -31 -35 -31 -39
0 -4 21 -18 48 -32 46 -26 47 -26 12 -20 -110 18 -103 19 -139 -18 l-33 -35
52 -27 c28 -14 50 -28 48 -30 -2 -2 -32 3 -68 10 l-65 14 -32 -32 c-18 -17
-33 -33 -33 -36 0 -4 21 -19 48 -34 36 -22 41 -27 19 -22 -97 20 -117 19 -147
-10 -17 -16 -30 -32 -30 -37 0 -4 26 -21 58 -38 31 -17 48 -28 37 -26 -11 3
-46 10 -79 16 l-59 12 -35 -35 -35 -35 59 -31 59 -32 -40 6 c-22 4 -52 9 -67
12 -24 5 -28 2 -28 -18 l-1 -24 -19 24 c-11 13 -20 34 -20 48 0 19 142 168
654 686 360 364 934 941 1275 1282 l621 620 -47 47 c-26 27 -50 48 -53 48 -3
0 -584 -579 -1292 -1287z"/>
</g>
</svg>
